<svg width="510" height="200" viewBox="0 0 510 200" fill="none" xmlns="http://www.w3.org/2000/svg">
<rect width="510" height="200" rx="15" fill="#202B3C"/>
<path d="M121 100L155 100" stroke="#1059BC" stroke-width="2" stroke-dasharray="2 2"/>
<g filter="url(#filter0_d_1312_17484)">
<rect x="32" y="81" width="89.4321" height="38.3426" rx="6.98765" fill="#384860"/>
<path d="M52.1461 104.171V95H55.356C56.0722 95 56.6662 95.1223 57.1379 95.3668C57.6095 95.6027 57.9589 95.9302 58.186 96.3495C58.4218 96.76 58.5398 97.2273 58.5398 97.7514C58.5398 98.2492 58.4262 98.7078 58.1991 99.1271C57.9807 99.5376 57.6357 99.8651 57.1641 100.11C56.6924 100.354 56.0897 100.477 55.356 100.477H53.5348V104.171H52.1461ZM53.5348 99.3367H55.2905C55.9456 99.3367 56.4129 99.1969 56.6924 98.9174C56.9806 98.6292 57.1248 98.2405 57.1248 97.7514C57.1248 97.2448 56.9806 96.8517 56.6924 96.5722C56.4129 96.2839 55.9456 96.1398 55.2905 96.1398H53.5348V99.3367ZM61.7029 104.328C61.1527 104.328 60.6985 104.237 60.3403 104.053C59.9822 103.87 59.7158 103.63 59.5411 103.333C59.3664 103.027 59.2791 102.695 59.2791 102.337C59.2791 101.708 59.5237 101.21 60.0128 100.843C60.5019 100.477 61.2007 100.293 62.1091 100.293H63.8123V100.175C63.8123 99.6686 63.6726 99.2886 63.3931 99.0353C63.1223 98.782 62.7685 98.6554 62.3318 98.6554C61.9475 98.6554 61.6112 98.7515 61.323 98.9436C61.0435 99.1271 60.8731 99.4022 60.812 99.769H59.4232C59.4669 99.2974 59.6241 98.8956 59.8949 98.5637C60.1744 98.223 60.5238 97.9654 60.943 97.7907C61.371 97.6072 61.8383 97.5155 62.3449 97.5155C63.2533 97.5155 63.9565 97.7557 64.4543 98.2361C64.9522 98.7078 65.2011 99.3542 65.2011 100.175V104.171H63.9958L63.8778 103.058C63.6944 103.416 63.428 103.717 63.0786 103.962C62.7292 104.206 62.2707 104.328 61.7029 104.328ZM61.9781 103.202C62.3537 103.202 62.6681 103.114 62.9214 102.94C63.1834 102.756 63.3843 102.516 63.5241 102.219C63.6726 101.922 63.7643 101.595 63.7992 101.236H62.2532C61.7029 101.236 61.3099 101.333 61.074 101.525C60.8469 101.717 60.7334 101.957 60.7334 102.245C60.7334 102.542 60.8426 102.778 61.0609 102.953C61.288 103.119 61.5937 103.202 61.9781 103.202ZM67.3756 107.054L68.9347 103.634H68.5548L65.9868 97.6727H67.4935L69.485 102.481L71.5682 97.6727H73.0356L68.843 107.054H67.3756ZM77.4785 104.171V97.6727H78.7101L78.8149 98.8126C79.0158 98.4108 79.3084 98.0964 79.6927 97.8693C80.0858 97.6334 80.5356 97.5155 81.0422 97.5155C81.8283 97.5155 82.4441 97.7601 82.8895 98.2492C83.3437 98.7384 83.5708 99.4677 83.5708 100.437V104.171H82.1951V100.581C82.1951 99.3236 81.6798 98.6947 80.6491 98.6947C80.1338 98.6947 79.7058 98.8781 79.3651 99.245C79.0332 99.6118 78.8673 100.136 78.8673 100.817V104.171H77.4785ZM88.2462 104.328C87.626 104.328 87.067 104.189 86.5691 103.909C86.08 103.621 85.6913 103.224 85.4031 102.717C85.1148 102.202 84.9707 101.603 84.9707 100.922C84.9707 100.241 85.1148 99.6468 85.4031 99.1402C85.7 98.6248 86.0975 98.2274 86.5953 97.9479C87.0932 97.6596 87.6478 97.5155 88.2593 97.5155C88.8794 97.5155 89.4341 97.6596 89.9232 97.9479C90.4211 98.2274 90.8141 98.6248 91.1024 99.1402C91.3993 99.6468 91.5478 100.241 91.5478 100.922C91.5478 101.603 91.3993 102.202 91.1024 102.717C90.8141 103.224 90.4211 103.621 89.9232 103.909C89.4253 104.189 88.8663 104.328 88.2462 104.328ZM88.2462 103.136C88.5781 103.136 88.8838 103.053 89.1633 102.887C89.4515 102.721 89.683 102.477 89.8577 102.154C90.0324 101.822 90.1197 101.411 90.1197 100.922C90.1197 100.433 90.0324 100.027 89.8577 99.7035C89.6917 99.3716 89.4646 99.1227 89.1764 98.9567C88.8969 98.7908 88.5912 98.7078 88.2593 98.7078C87.9273 98.7078 87.6173 98.7908 87.329 98.9567C87.0495 99.1227 86.8224 99.3716 86.6477 99.7035C86.473 100.027 86.3857 100.433 86.3857 100.922C86.3857 101.411 86.473 101.822 86.6477 102.154C86.8224 102.477 87.0495 102.721 87.329 102.887C87.6085 103.053 87.9142 103.136 88.2462 103.136ZM94.1037 104.171L92.1908 97.6727H93.5796L94.8374 102.573L96.2524 97.6727H97.7984L99.2134 102.573L100.471 97.6727H101.86L99.9471 104.171H98.519L97.0254 99.0615L95.5318 104.171H94.1037Z" fill="white"/>
</g>
<rect x="155" y="81" width="37.8963" height="37.8963" rx="10.1612" fill="#1059BC"/>
<rect opacity="0.2" x="166.197" y="110.283" width="20.6707" height="15.503" transform="rotate(-90 166.197 110.283)" fill="white"/>
<rect x="176.533" y="110.283" width="20.6707" height="5.16768" transform="rotate(-90 176.533 110.283)" fill="white"/>
<rect opacity="0.1" x="181.7" y="110.283" width="15.503" height="5.16768" transform="rotate(180 181.7 110.283)" fill="white"/>
<rect opacity="0.7" x="181.7" y="110.283" width="15.503" height="6.93225" transform="rotate(180 181.7 110.283)" fill="white"/>
<rect opacity="0.3" x="181.7" y="103.351" width="15.503" height="6.93225" transform="rotate(180 181.7 103.351)" fill="white"/>
<rect opacity="0.7" x="171.365" y="110.283" width="20.6707" height="5.16768" transform="rotate(-90 171.365 110.283)" fill="white"/>
<rect opacity="0.3" x="166.197" y="110.283" width="20.6707" height="5.16768" transform="rotate(-90 166.197 110.283)" fill="white"/>
<rect x="155" y="81" width="37.8963" height="37.8963" rx="10.1612" stroke="#4F627D"/>
<rect x="155.339" y="81.3387" width="37.2189" height="37.2189" rx="9.82246" stroke="#4F627D" stroke-width="0.677411"/>
<rect x="374" y="49" width="103" height="101" rx="12" fill="#384860"/>
<g clip-path="url(#clip0_1312_17484)">
<rect x="412" y="66" width="27" height="27" rx="13.5" fill="#27AE60"/>
<path d="M423.037 81.5384C423.465 81.9661 424.159 81.966 424.586 81.5383L430.562 75.5624C430.872 75.2518 431.376 75.2517 431.687 75.5622C431.997 75.8729 431.998 76.3768 431.687 76.6876L424.586 83.788C424.159 84.2157 423.465 84.2157 423.038 83.788L419.312 80.0624C419.001 79.7518 419.001 79.2482 419.312 78.9376C419.623 78.627 420.126 78.627 420.437 78.9376L423.037 81.5384Z" fill="white"/>
</g>
<circle cx="425.5" cy="79.5" r="17.5" transform="rotate(-180 425.5 79.5)" stroke="#27AE60" stroke-opacity="0.35" stroke-width="2"/>
<path d="M401.274 118V109.6H404.214C404.87 109.6 405.414 109.712 405.846 109.936C406.278 110.152 406.598 110.452 406.806 110.836C407.022 111.212 407.13 111.64 407.13 112.12C407.13 112.576 407.026 112.996 406.818 113.38C406.618 113.756 406.302 114.056 405.87 114.28C405.438 114.504 404.886 114.616 404.214 114.616H402.546V118H401.274ZM402.546 113.572H404.154C404.754 113.572 405.182 113.444 405.438 113.188C405.702 112.924 405.834 112.568 405.834 112.12C405.834 111.656 405.702 111.296 405.438 111.04C405.182 110.776 404.754 110.644 404.154 110.644H402.546V113.572ZM410.027 118.144C409.523 118.144 409.107 118.06 408.779 117.892C408.451 117.724 408.207 117.504 408.047 117.232C407.887 116.952 407.807 116.648 407.807 116.32C407.807 115.744 408.031 115.288 408.479 114.952C408.927 114.616 409.567 114.448 410.399 114.448H411.959V114.34C411.959 113.876 411.831 113.528 411.575 113.296C411.327 113.064 411.003 112.948 410.603 112.948C410.251 112.948 409.943 113.036 409.679 113.212C409.423 113.38 409.267 113.632 409.211 113.968H407.939C407.979 113.536 408.123 113.168 408.371 112.864C408.627 112.552 408.947 112.316 409.331 112.156C409.723 111.988 410.151 111.904 410.615 111.904C411.447 111.904 412.091 112.124 412.547 112.564C413.003 112.996 413.231 113.588 413.231 114.34V118H412.127L412.019 116.98C411.851 117.308 411.607 117.584 411.287 117.808C410.967 118.032 410.547 118.144 410.027 118.144ZM410.279 117.112C410.623 117.112 410.911 117.032 411.143 116.872C411.383 116.704 411.567 116.484 411.695 116.212C411.831 115.94 411.915 115.64 411.947 115.312H410.531C410.027 115.312 409.667 115.4 409.451 115.576C409.243 115.752 409.139 115.972 409.139 116.236C409.139 116.508 409.239 116.724 409.439 116.884C409.647 117.036 409.927 117.112 410.279 117.112ZM415.223 120.64L416.651 117.508H416.303L413.951 112.048H415.331L417.155 116.452L419.063 112.048H420.407L416.567 120.64H415.223ZM421.452 118V112.048H422.58L422.688 112.888C422.88 112.584 423.132 112.344 423.444 112.168C423.764 111.992 424.132 111.904 424.548 111.904C425.492 111.904 426.148 112.276 426.516 113.02C426.732 112.676 427.02 112.404 427.38 112.204C427.748 112.004 428.144 111.904 428.568 111.904C429.312 111.904 429.896 112.128 430.32 112.576C430.744 113.024 430.956 113.692 430.956 114.58V118H429.684V114.712C429.684 113.56 429.244 112.984 428.364 112.984C427.916 112.984 427.548 113.152 427.26 113.488C426.98 113.824 426.84 114.304 426.84 114.928V118H425.568V114.712C425.568 113.56 425.124 112.984 424.236 112.984C423.796 112.984 423.432 113.152 423.144 113.488C422.864 113.824 422.724 114.304 422.724 114.928V118H421.452ZM435.229 118.144C434.645 118.144 434.125 118.016 433.669 117.76C433.221 117.496 432.869 117.132 432.613 116.668C432.357 116.204 432.229 115.664 432.229 115.048C432.229 114.424 432.353 113.876 432.601 113.404C432.857 112.932 433.209 112.564 433.657 112.3C434.113 112.036 434.641 111.904 435.241 111.904C435.825 111.904 436.333 112.036 436.765 112.3C437.197 112.556 437.533 112.9 437.773 113.332C438.013 113.764 438.133 114.24 438.133 114.76C438.133 114.84 438.129 114.928 438.121 115.024C438.121 115.112 438.117 115.212 438.109 115.324H433.477C433.517 115.9 433.705 116.34 434.041 116.644C434.385 116.94 434.781 117.088 435.229 117.088C435.589 117.088 435.889 117.008 436.129 116.848C436.377 116.68 436.561 116.456 436.681 116.176H437.953C437.793 116.736 437.473 117.204 436.993 117.58C436.521 117.956 435.933 118.144 435.229 118.144ZM435.229 112.948C434.805 112.948 434.429 113.076 434.101 113.332C433.773 113.58 433.573 113.956 433.501 114.46H436.861C436.837 113.996 436.673 113.628 436.369 113.356C436.065 113.084 435.685 112.948 435.229 112.948ZM439.452 118V112.048H440.58L440.676 113.092C440.86 112.724 441.128 112.436 441.48 112.228C441.84 112.012 442.252 111.904 442.716 111.904C443.436 111.904 444 112.128 444.408 112.576C444.824 113.024 445.032 113.692 445.032 114.58V118H443.772V114.712C443.772 113.56 443.3 112.984 442.356 112.984C441.884 112.984 441.492 113.152 441.18 113.488C440.876 113.824 440.724 114.304 440.724 114.928V118H439.452ZM449.027 118C448.443 118 447.979 117.86 447.635 117.58C447.291 117.292 447.119 116.784 447.119 116.056V113.116H446.099V112.048H447.119L447.275 110.536H448.391V112.048H450.071V113.116H448.391V116.056C448.391 116.384 448.459 116.612 448.595 116.74C448.739 116.86 448.983 116.92 449.327 116.92H450.011V118H449.027ZM398.352 134.144C397.6 134.144 396.98 133.96 396.492 133.592C396.004 133.224 395.724 132.736 395.652 132.128H396.936C397 132.4 397.152 132.636 397.392 132.836C397.632 133.028 397.948 133.124 398.34 133.124C398.724 133.124 399.004 133.044 399.18 132.884C399.356 132.724 399.444 132.54 399.444 132.332C399.444 132.028 399.32 131.824 399.072 131.72C398.832 131.608 398.496 131.508 398.064 131.42C397.728 131.348 397.392 131.252 397.056 131.132C396.728 131.012 396.452 130.844 396.228 130.628C396.012 130.404 395.904 130.104 395.904 129.728C395.904 129.208 396.104 128.776 396.504 128.432C396.904 128.08 397.464 127.904 398.184 127.904C398.848 127.904 399.384 128.064 399.792 128.384C400.208 128.704 400.452 129.156 400.524 129.74H399.3C399.26 129.484 399.14 129.284 398.94 129.14C398.748 128.996 398.488 128.924 398.16 128.924C397.84 128.924 397.592 128.992 397.416 129.128C397.24 129.256 397.152 129.424 397.152 129.632C397.152 129.84 397.272 130.004 397.512 130.124C397.76 130.244 398.084 130.352 398.484 130.448C398.884 130.536 399.252 130.64 399.588 130.76C399.932 130.872 400.208 131.04 400.416 131.264C400.624 131.488 400.728 131.816 400.728 132.248C400.736 132.792 400.524 133.244 400.092 133.604C399.668 133.964 399.088 134.144 398.352 134.144ZM404.312 134.144C403.593 134.144 403.025 133.92 402.609 133.472C402.201 133.024 401.997 132.356 401.997 131.468V128.048H403.269V131.336C403.269 132.488 403.741 133.064 404.685 133.064C405.157 133.064 405.545 132.896 405.849 132.56C406.153 132.224 406.305 131.744 406.305 131.12V128.048H407.577V134H406.449L406.353 132.956C406.169 133.324 405.897 133.616 405.537 133.832C405.185 134.04 404.777 134.144 404.312 134.144ZM412.015 134.144C411.431 134.144 410.907 134.012 410.443 133.748C409.987 133.484 409.627 133.12 409.363 132.656C409.107 132.184 408.979 131.64 408.979 131.024C408.979 130.408 409.107 129.868 409.363 129.404C409.627 128.932 409.987 128.564 410.443 128.3C410.907 128.036 411.431 127.904 412.015 127.904C412.751 127.904 413.367 128.096 413.863 128.48C414.367 128.864 414.691 129.384 414.835 130.04H413.503C413.423 129.712 413.247 129.456 412.975 129.272C412.703 129.088 412.383 128.996 412.015 128.996C411.703 128.996 411.415 129.076 411.151 129.236C410.887 129.388 410.675 129.616 410.515 129.92C410.355 130.216 410.275 130.584 410.275 131.024C410.275 131.464 410.355 131.836 410.515 132.14C410.675 132.436 410.887 132.664 411.151 132.824C411.415 132.984 411.703 133.064 412.015 133.064C412.383 133.064 412.703 132.972 412.975 132.788C413.247 132.604 413.423 132.344 413.503 132.008H414.835C414.699 132.648 414.379 133.164 413.875 133.556C413.371 133.948 412.751 134.144 412.015 134.144ZM419.034 134.144C418.45 134.144 417.926 134.012 417.462 133.748C417.006 133.484 416.646 133.12 416.382 132.656C416.126 132.184 415.998 131.64 415.998 131.024C415.998 130.408 416.126 129.868 416.382 129.404C416.646 128.932 417.006 128.564 417.462 128.3C417.926 128.036 418.45 127.904 419.034 127.904C419.77 127.904 420.386 128.096 420.882 128.48C421.386 128.864 421.71 129.384 421.854 130.04H420.522C420.442 129.712 420.266 129.456 419.994 129.272C419.722 129.088 419.402 128.996 419.034 128.996C418.722 128.996 418.434 129.076 418.17 129.236C417.906 129.388 417.694 129.616 417.534 129.92C417.374 130.216 417.294 130.584 417.294 131.024C417.294 131.464 417.374 131.836 417.534 132.14C417.694 132.436 417.906 132.664 418.17 132.824C418.434 132.984 418.722 133.064 419.034 133.064C419.402 133.064 419.722 132.972 419.994 132.788C420.266 132.604 420.442 132.344 420.522 132.008H421.854C421.718 132.648 421.398 133.164 420.894 133.556C420.39 133.948 419.77 134.144 419.034 134.144ZM426.018 134.144C425.434 134.144 424.914 134.016 424.458 133.76C424.01 133.496 423.658 133.132 423.402 132.668C423.146 132.204 423.018 131.664 423.018 131.048C423.018 130.424 423.142 129.876 423.39 129.404C423.646 128.932 423.998 128.564 424.446 128.3C424.902 128.036 425.43 127.904 426.03 127.904C426.614 127.904 427.122 128.036 427.554 128.3C427.986 128.556 428.322 128.9 428.562 129.332C428.802 129.764 428.922 130.24 428.922 130.76C428.922 130.84 428.918 130.928 428.91 131.024C428.91 131.112 428.906 131.212 428.898 131.324H424.266C424.306 131.9 424.494 132.34 424.83 132.644C425.174 132.94 425.57 133.088 426.018 133.088C426.378 133.088 426.678 133.008 426.918 132.848C427.166 132.68 427.35 132.456 427.47 132.176H428.742C428.582 132.736 428.262 133.204 427.782 133.58C427.31 133.956 426.722 134.144 426.018 134.144ZM426.018 128.948C425.594 128.948 425.218 129.076 424.89 129.332C424.562 129.58 424.362 129.956 424.29 130.46H427.65C427.626 129.996 427.462 129.628 427.158 129.356C426.854 129.084 426.474 128.948 426.018 128.948ZM432.618 134.144C431.866 134.144 431.246 133.96 430.758 133.592C430.27 133.224 429.99 132.736 429.918 132.128H431.201C431.266 132.4 431.418 132.636 431.658 132.836C431.898 133.028 432.214 133.124 432.605 133.124C432.99 133.124 433.27 133.044 433.446 132.884C433.622 132.724 433.71 132.54 433.71 132.332C433.71 132.028 433.586 131.824 433.338 131.72C433.098 131.608 432.762 131.508 432.33 131.42C431.994 131.348 431.658 131.252 431.322 131.132C430.994 131.012 430.718 130.844 430.494 130.628C430.278 130.404 430.17 130.104 430.17 129.728C430.17 129.208 430.37 128.776 430.77 128.432C431.17 128.08 431.73 127.904 432.45 127.904C433.114 127.904 433.65 128.064 434.058 128.384C434.474 128.704 434.718 129.156 434.79 129.74H433.566C433.526 129.484 433.406 129.284 433.206 129.14C433.014 128.996 432.754 128.924 432.426 128.924C432.106 128.924 431.858 128.992 431.682 129.128C431.506 129.256 431.418 129.424 431.418 129.632C431.418 129.84 431.538 130.004 431.778 130.124C432.026 130.244 432.35 130.352 432.75 130.448C433.15 130.536 433.518 130.64 433.854 130.76C434.198 130.872 434.474 131.04 434.682 131.264C434.89 131.488 434.994 131.816 434.994 132.248C435.002 132.792 434.79 133.244 434.358 133.604C433.934 133.964 433.354 134.144 432.618 134.144ZM438.758 134.144C438.006 134.144 437.386 133.96 436.898 133.592C436.41 133.224 436.13 132.736 436.058 132.128H437.342C437.406 132.4 437.558 132.636 437.798 132.836C438.038 133.028 438.354 133.124 438.746 133.124C439.13 133.124 439.41 133.044 439.586 132.884C439.762 132.724 439.85 132.54 439.85 132.332C439.85 132.028 439.726 131.824 439.478 131.72C439.238 131.608 438.902 131.508 438.47 131.42C438.134 131.348 437.798 131.252 437.462 131.132C437.134 131.012 436.858 130.844 436.634 130.628C436.418 130.404 436.31 130.104 436.31 129.728C436.31 129.208 436.51 128.776 436.91 128.432C437.31 128.08 437.87 127.904 438.59 127.904C439.254 127.904 439.79 128.064 440.198 128.384C440.614 128.704 440.858 129.156 440.93 129.74H439.706C439.666 129.484 439.546 129.284 439.346 129.14C439.154 128.996 438.894 128.924 438.566 128.924C438.246 128.924 437.998 128.992 437.822 129.128C437.646 129.256 437.558 129.424 437.558 129.632C437.558 129.84 437.678 130.004 437.918 130.124C438.166 130.244 438.49 130.352 438.89 130.448C439.29 130.536 439.658 130.64 439.994 130.76C440.338 130.872 440.614 131.04 440.822 131.264C441.03 131.488 441.134 131.816 441.134 132.248C441.142 132.792 440.93 133.244 440.498 133.604C440.074 133.964 439.494 134.144 438.758 134.144ZM442.823 134V129.116H441.971V128.048H442.823V127.184C442.823 126.536 442.983 126.072 443.303 125.792C443.631 125.504 444.091 125.36 444.683 125.36H445.307V126.44H444.875C444.595 126.44 444.395 126.5 444.275 126.62C444.155 126.732 444.095 126.924 444.095 127.196V128.048H445.463V129.116H444.095V134H442.823ZM448.867 134.144C448.147 134.144 447.579 133.92 447.163 133.472C446.755 133.024 446.551 132.356 446.551 131.468V128.048H447.823V131.336C447.823 132.488 448.295 133.064 449.239 133.064C449.711 133.064 450.099 132.896 450.403 132.56C450.707 132.224 450.859 131.744 450.859 131.12V128.048H452.131V134H451.003L450.907 132.956C450.723 133.324 450.451 133.616 450.091 133.832C449.739 134.04 449.331 134.144 448.867 134.144ZM453.749 134V125.36H455.021V134H453.749Z" fill="white"/>
<path d="M339 100L375 100" stroke="#1059BC" stroke-width="2"/>
<path d="M271.487 114L272.225 109.8H272.729L272.063 113.598H274.019L273.947 114H271.487ZM275.837 114.072C275.589 114.072 275.369 114.016 275.177 113.904C274.985 113.792 274.835 113.638 274.727 113.442C274.619 113.246 274.565 113.024 274.565 112.776C274.565 112.512 274.611 112.27 274.703 112.05C274.795 111.83 274.921 111.638 275.081 111.474C275.241 111.31 275.427 111.182 275.639 111.09C275.851 110.998 276.081 110.952 276.329 110.952C276.577 110.952 276.797 111.006 276.989 111.114C277.181 111.222 277.331 111.372 277.439 111.564C277.547 111.756 277.601 111.978 277.601 112.23C277.601 112.49 277.555 112.732 277.463 112.956C277.375 113.18 277.249 113.376 277.085 113.544C276.925 113.708 276.739 113.838 276.527 113.934C276.315 114.026 276.085 114.072 275.837 114.072ZM275.903 113.64C276.127 113.64 276.327 113.58 276.503 113.46C276.683 113.34 276.825 113.176 276.929 112.968C277.033 112.76 277.085 112.526 277.085 112.266C277.085 111.986 277.003 111.77 276.839 111.618C276.679 111.462 276.487 111.384 276.263 111.384C276.043 111.384 275.845 111.444 275.669 111.564C275.493 111.684 275.353 111.848 275.249 112.056C275.145 112.264 275.093 112.498 275.093 112.758C275.093 112.946 275.129 113.106 275.201 113.238C275.277 113.366 275.377 113.466 275.501 113.538C275.625 113.606 275.759 113.64 275.903 113.64ZM278.42 114L278.066 111.024H278.576L278.792 113.358L279.902 111.024H280.472L280.754 113.358L281.798 111.024H282.302L280.91 114H280.394L280.094 111.546L278.93 114H278.42ZM284.187 114L284.637 111.45H284.193L284.265 111.024H284.709L284.799 110.508C284.851 110.22 284.961 110.01 285.129 109.878C285.297 109.746 285.521 109.68 285.801 109.68H286.095L286.017 110.112H285.801C285.649 110.112 285.535 110.144 285.459 110.208C285.383 110.268 285.331 110.372 285.303 110.52L285.213 111.024H285.951L285.873 111.45H285.141L284.691 114H284.187ZM287.355 114.072C286.987 114.072 286.691 113.958 286.467 113.73C286.247 113.502 286.137 113.196 286.137 112.812C286.137 112.468 286.213 112.156 286.365 111.876C286.517 111.592 286.725 111.368 286.989 111.204C287.257 111.036 287.561 110.952 287.901 110.952C288.161 110.952 288.379 111.004 288.555 111.108C288.735 111.208 288.869 111.344 288.957 111.516C289.049 111.688 289.095 111.878 289.095 112.086C289.095 112.166 289.085 112.258 289.065 112.362C289.049 112.462 289.033 112.55 289.017 112.626H286.641C286.633 112.694 286.629 112.754 286.629 112.806C286.629 113.09 286.709 113.302 286.869 113.442C287.029 113.578 287.217 113.646 287.433 113.646C287.641 113.646 287.823 113.598 287.979 113.502C288.139 113.402 288.263 113.272 288.351 113.112H288.849C288.725 113.388 288.533 113.618 288.273 113.802C288.013 113.982 287.707 114.072 287.355 114.072ZM287.835 111.378C287.595 111.378 287.369 111.452 287.157 111.6C286.945 111.744 286.799 111.956 286.719 112.236H288.591C288.595 112.212 288.597 112.19 288.597 112.17C288.601 112.146 288.603 112.124 288.603 112.104C288.603 111.876 288.533 111.698 288.393 111.57C288.253 111.442 288.067 111.378 287.835 111.378ZM290.765 114.072C290.397 114.072 290.101 113.958 289.877 113.73C289.657 113.502 289.547 113.196 289.547 112.812C289.547 112.468 289.623 112.156 289.775 111.876C289.927 111.592 290.135 111.368 290.399 111.204C290.667 111.036 290.971 110.952 291.311 110.952C291.571 110.952 291.789 111.004 291.965 111.108C292.145 111.208 292.279 111.344 292.367 111.516C292.459 111.688 292.505 111.878 292.505 112.086C292.505 112.166 292.495 112.258 292.475 112.362C292.459 112.462 292.443 112.55 292.427 112.626H290.051C290.043 112.694 290.039 112.754 290.039 112.806C290.039 113.09 290.119 113.302 290.279 113.442C290.439 113.578 290.627 113.646 290.843 113.646C291.051 113.646 291.233 113.598 291.389 113.502C291.549 113.402 291.673 113.272 291.761 113.112H292.259C292.135 113.388 291.943 113.618 291.683 113.802C291.423 113.982 291.117 114.072 290.765 114.072ZM291.245 111.378C291.005 111.378 290.779 111.452 290.567 111.6C290.355 111.744 290.209 111.956 290.129 112.236H292.001C292.005 112.212 292.007 112.19 292.007 112.17C292.011 112.146 292.013 112.124 292.013 112.104C292.013 111.876 291.943 111.698 291.803 111.57C291.663 111.442 291.477 111.378 291.245 111.378Z" fill="white"/>
<path d="M271.284 91L272.022 86.8H272.526L272.196 88.66H274.38L274.71 86.8H275.214L274.47 91H273.966L274.314 89.056H272.13L271.788 91H271.284ZM276.34 87.364C276.24 87.364 276.156 87.332 276.088 87.268C276.024 87.204 275.992 87.122 275.992 87.022C275.992 86.922 276.024 86.84 276.088 86.776C276.156 86.712 276.24 86.68 276.34 86.68C276.436 86.68 276.518 86.712 276.586 86.776C276.654 86.84 276.688 86.922 276.688 87.022C276.688 87.122 276.654 87.204 276.586 87.268C276.518 87.332 276.436 87.364 276.34 87.364ZM275.386 91L275.908 88.024H276.412L275.89 91H275.386ZM278.087 90.064C277.911 90.064 277.755 90.04 277.619 89.992L277.325 90.22C277.413 90.276 277.513 90.32 277.625 90.352C277.737 90.384 277.901 90.408 278.117 90.424C278.397 90.444 278.615 90.494 278.771 90.574C278.931 90.654 279.043 90.754 279.107 90.874C279.171 90.99 279.203 91.112 279.203 91.24C279.203 91.46 279.139 91.656 279.011 91.828C278.883 92.004 278.705 92.142 278.477 92.242C278.249 92.342 277.987 92.392 277.691 92.392C277.327 92.392 277.031 92.318 276.803 92.17C276.575 92.026 276.461 91.818 276.461 91.546C276.461 91.358 276.513 91.186 276.617 91.03C276.717 90.878 276.865 90.742 277.061 90.622C276.921 90.558 276.807 90.478 276.719 90.382L276.743 90.238L277.301 89.794C277.145 89.642 277.067 89.446 277.067 89.206C277.067 88.97 277.129 88.758 277.253 88.57C277.377 88.378 277.543 88.228 277.751 88.12C277.963 88.008 278.199 87.952 278.459 87.952C278.631 87.952 278.783 87.976 278.915 88.024H280.013L279.941 88.396L279.383 88.42C279.439 88.536 279.467 88.666 279.467 88.81C279.467 89.046 279.405 89.26 279.281 89.452C279.161 89.64 278.997 89.79 278.789 89.902C278.581 90.01 278.347 90.064 278.087 90.064ZM278.159 89.65C278.403 89.65 278.601 89.578 278.753 89.434C278.909 89.286 278.987 89.096 278.987 88.864C278.987 88.708 278.933 88.586 278.825 88.498C278.717 88.41 278.571 88.366 278.387 88.366C278.143 88.366 277.943 88.44 277.787 88.588C277.635 88.732 277.559 88.92 277.559 89.152C277.559 89.312 277.611 89.436 277.715 89.524C277.823 89.608 277.971 89.65 278.159 89.65ZM276.971 91.45C276.971 91.614 277.041 91.742 277.181 91.834C277.321 91.93 277.515 91.978 277.763 91.978C278.035 91.978 278.259 91.916 278.435 91.792C278.611 91.668 278.699 91.5 278.699 91.288C278.699 91.176 278.655 91.078 278.567 90.994C278.479 90.906 278.305 90.852 278.045 90.832C277.829 90.82 277.637 90.794 277.469 90.754C277.137 90.938 276.971 91.17 276.971 91.45ZM280.078 91L280.834 86.68H281.338L281.014 88.534C281.142 88.354 281.304 88.212 281.5 88.108C281.7 88.004 281.91 87.952 282.13 87.952C282.478 87.952 282.738 88.06 282.91 88.276C283.086 88.488 283.134 88.816 283.054 89.26L282.748 91H282.244L282.538 89.314C282.646 88.694 282.446 88.384 281.938 88.384C281.682 88.384 281.452 88.478 281.248 88.666C281.044 88.85 280.912 89.114 280.852 89.458L280.582 91H280.078ZM285.39 91L285.84 88.45H285.396L285.468 88.024H285.912L286.002 87.508C286.054 87.22 286.164 87.01 286.332 86.878C286.5 86.746 286.724 86.68 287.004 86.68H287.298L287.22 87.112H287.004C286.852 87.112 286.738 87.144 286.662 87.208C286.586 87.268 286.534 87.372 286.506 87.52L286.416 88.024H287.154L287.076 88.45H286.344L285.894 91H285.39ZM288.558 91.072C288.19 91.072 287.894 90.958 287.67 90.73C287.45 90.502 287.34 90.196 287.34 89.812C287.34 89.468 287.416 89.156 287.568 88.876C287.72 88.592 287.928 88.368 288.192 88.204C288.46 88.036 288.764 87.952 289.104 87.952C289.364 87.952 289.582 88.004 289.758 88.108C289.938 88.208 290.072 88.344 290.16 88.516C290.252 88.688 290.298 88.878 290.298 89.086C290.298 89.166 290.288 89.258 290.268 89.362C290.252 89.462 290.236 89.55 290.22 89.626H287.844C287.836 89.694 287.832 89.754 287.832 89.806C287.832 90.09 287.912 90.302 288.072 90.442C288.232 90.578 288.42 90.646 288.636 90.646C288.844 90.646 289.026 90.598 289.182 90.502C289.342 90.402 289.466 90.272 289.554 90.112H290.052C289.928 90.388 289.736 90.618 289.476 90.802C289.216 90.982 288.91 91.072 288.558 91.072ZM289.038 88.378C288.798 88.378 288.572 88.452 288.36 88.6C288.148 88.744 288.002 88.956 287.922 89.236H289.794C289.798 89.212 289.8 89.19 289.8 89.17C289.804 89.146 289.806 89.124 289.806 89.104C289.806 88.876 289.736 88.698 289.596 88.57C289.456 88.442 289.27 88.378 289.038 88.378ZM291.968 91.072C291.6 91.072 291.304 90.958 291.08 90.73C290.86 90.502 290.75 90.196 290.75 89.812C290.75 89.468 290.826 89.156 290.978 88.876C291.13 88.592 291.338 88.368 291.602 88.204C291.87 88.036 292.174 87.952 292.514 87.952C292.774 87.952 292.992 88.004 293.168 88.108C293.348 88.208 293.482 88.344 293.57 88.516C293.662 88.688 293.708 88.878 293.708 89.086C293.708 89.166 293.698 89.258 293.678 89.362C293.662 89.462 293.646 89.55 293.63 89.626H291.254C291.246 89.694 291.242 89.754 291.242 89.806C291.242 90.09 291.322 90.302 291.482 90.442C291.642 90.578 291.83 90.646 292.046 90.646C292.254 90.646 292.436 90.598 292.592 90.502C292.752 90.402 292.876 90.272 292.964 90.112H293.462C293.338 90.388 293.146 90.618 292.886 90.802C292.626 90.982 292.32 91.072 291.968 91.072ZM292.448 88.378C292.208 88.378 291.982 88.452 291.77 88.6C291.558 88.744 291.412 88.956 291.332 89.236H293.204C293.208 89.212 293.21 89.19 293.21 89.17C293.214 89.146 293.216 89.124 293.216 89.104C293.216 88.876 293.146 88.698 293.006 88.57C292.866 88.442 292.68 88.378 292.448 88.378Z" fill="white"/>
<path d="M230 100C230 100 236.76 98.9362 242.5 95.0537C269.5 76.7904 293.877 75.8464 323 95.0537C330.5 100 339 100 339 100" stroke="#64748B" stroke-width="2"/>
<path d="M230 100C230 100 236.76 101.064 242.5 104.946C269.5 123.21 293.877 124.154 323 104.946C330.5 100 339 100 339 100" stroke="#1059BC" stroke-width="2"/>
<path d="M292.827 55.52L285.013 52.04C283.867 51.5333 282.133 51.5333 280.987 52.04L273.173 55.52C271.2 56.4 270.907 57.6 270.907 58.24C270.907 58.88 271.2 60.08 273.173 60.96L280.987 64.44C281.56 64.6933 282.28 64.8266 283 64.8266C283.72 64.8266 284.44 64.6933 285.013 64.44L292.827 60.96C294.8 60.08 295.093 58.88 295.093 58.24C295.093 57.6 294.813 56.4 292.827 55.52Z" fill="#00C3F7"/>
<path d="M283 71.72C282.493 71.72 281.987 71.6134 281.52 71.4134L272.533 67.4134C271.16 66.8 270.093 65.16 270.093 63.6534C270.093 63.1067 270.533 62.6667 271.08 62.6667C271.627 62.6667 272.067 63.1067 272.067 63.6534C272.067 64.3734 272.667 65.3067 273.333 65.6L282.32 69.6C282.747 69.7867 283.24 69.7867 283.667 69.6L292.653 65.6C293.32 65.3067 293.92 64.3867 293.92 63.6534C293.92 63.1067 294.36 62.6667 294.907 62.6667C295.453 62.6667 295.893 63.1067 295.893 63.6534C295.893 65.1467 294.827 66.8 293.453 67.4134L284.467 71.4134C284.013 71.6134 283.507 71.72 283 71.72Z" fill="#64748B"/>
<path d="M283 78.3334C282.493 78.3334 281.987 78.2267 281.52 78.0267L272.533 74.0267C271.053 73.3734 270.093 71.8934 270.093 70.2667C270.093 69.72 270.533 69.28 271.08 69.28C271.627 69.28 272.067 69.72 272.067 70.2667C272.067 71.1067 272.56 71.8667 273.333 72.2134L282.32 76.2134C282.747 76.4 283.24 76.4 283.667 76.2134L292.653 72.2134C293.413 71.88 293.92 71.1067 293.92 70.2667C293.92 69.72 294.36 69.28 294.907 69.28C295.453 69.28 295.893 69.72 295.893 70.2667C295.893 71.8934 294.933 73.36 293.453 74.0267L284.467 78.0267C284.013 78.2267 283.507 78.3334 283 78.3334Z" fill="#64748B"/>
<path d="M292.827 126.52L285.013 123.04C283.867 122.533 282.133 122.533 280.987 123.04L273.173 126.52C271.2 127.4 270.907 128.6 270.907 129.24C270.907 129.88 271.2 131.08 273.173 131.96L280.987 135.44C281.56 135.693 282.28 135.827 283 135.827C283.72 135.827 284.44 135.693 285.013 135.44L292.827 131.96C294.8 131.08 295.093 129.88 295.093 129.24C295.093 128.6 294.813 127.4 292.827 126.52Z" fill="#FF9B00"/>
<path d="M283 142.72C282.493 142.72 281.987 142.613 281.52 142.413L272.533 138.413C271.16 137.8 270.093 136.16 270.093 134.653C270.093 134.107 270.533 133.667 271.08 133.667C271.627 133.667 272.067 134.107 272.067 134.653C272.067 135.373 272.667 136.307 273.333 136.6L282.32 140.6C282.747 140.787 283.24 140.787 283.667 140.6L292.653 136.6C293.32 136.307 293.92 135.387 293.92 134.653C293.92 134.107 294.36 133.667 294.907 133.667C295.453 133.667 295.893 134.107 295.893 134.653C295.893 136.147 294.827 137.8 293.453 138.413L284.467 142.413C284.013 142.613 283.507 142.72 283 142.72Z" fill="#64748B"/>
<path d="M283 149.333C282.493 149.333 281.987 149.227 281.52 149.027L272.533 145.027C271.053 144.373 270.093 142.893 270.093 141.267C270.093 140.72 270.533 140.28 271.08 140.28C271.627 140.28 272.067 140.72 272.067 141.267C272.067 142.107 272.56 142.867 273.333 143.213L282.32 147.213C282.747 147.4 283.24 147.4 283.667 147.213L292.653 143.213C293.413 142.88 293.92 142.107 293.92 141.267C293.92 140.72 294.36 140.28 294.907 140.28C295.453 140.28 295.893 140.72 295.893 141.267C295.893 142.893 294.933 144.36 293.453 145.027L284.467 149.027C284.013 149.227 283.507 149.333 283 149.333Z" fill="#64748B"/>
<path d="M193 100H231" stroke="#1059BC" stroke-width="2"/>
<defs>
<filter id="filter0_d_1312_17484" x="29" y="78" width="95.4321" height="44.3425" filterUnits="userSpaceOnUse" color-interpolation-filters="sRGB">
<feFlood flood-opacity="0" result="BackgroundImageFix"/>
<feColorMatrix in="SourceAlpha" type="matrix" values="0 0 0 0 0 0 0 0 0 0 0 0 0 0 0 0 0 0 127 0" result="hardAlpha"/>
<feMorphology radius="3" operator="dilate" in="SourceAlpha" result="effect1_dropShadow_1312_17484"/>
<feOffset/>
<feComposite in2="hardAlpha" operator="out"/>
<feColorMatrix type="matrix" values="0 0 0 0 0.00392157 0 0 0 0 0.105882 0 0 0 0 0.2 0 0 0 0.15 0"/>
<feBlend mode="normal" in2="BackgroundImageFix" result="effect1_dropShadow_1312_17484"/>
<feBlend mode="normal" in="SourceGraphic" in2="effect1_dropShadow_1312_17484" result="shape"/>
</filter>
<clipPath id="clip0_1312_17484">
<rect x="412" y="66" width="27" height="27" rx="13.5" fill="white"/>
</clipPath>
</defs>
</svg>
