<svg width="510" height="200" viewBox="0 0 510 200" fill="none" xmlns="http://www.w3.org/2000/svg">
<rect width="510" height="200" rx="15" fill="#202B3C"/>
<path d="M60.8267 88.52L53.0134 85.04C51.8667 84.5333 50.1334 84.5333 48.9867 85.04L41.1734 88.52C39.2001 89.4 38.9067 90.6 38.9067 91.24C38.9067 91.88 39.2001 93.08 41.1734 93.96L48.9867 97.44C49.5601 97.6933 50.2801 97.8266 51.0001 97.8266C51.7201 97.8266 52.4401 97.6933 53.0134 97.44L60.8267 93.96C62.8001 93.08 63.0934 91.88 63.0934 91.24C63.0934 90.6 62.8134 89.4 60.8267 88.52Z" fill="#00C3F7"/>
<path d="M50.9999 104.72C50.4933 104.72 49.9866 104.613 49.5199 104.413L40.5333 100.413C39.1599 99.8 38.0933 98.16 38.0933 96.6534C38.0933 96.1067 38.5333 95.6667 39.0799 95.6667C39.6266 95.6667 40.0666 96.1067 40.0666 96.6534C40.0666 97.3734 40.6666 98.3067 41.3333 98.6L50.3199 102.6C50.7466 102.787 51.2399 102.787 51.6666 102.6L60.6533 98.6C61.3199 98.3067 61.9199 97.3867 61.9199 96.6534C61.9199 96.1067 62.3599 95.6667 62.9066 95.6667C63.4533 95.6667 63.8933 96.1067 63.8933 96.6534C63.8933 98.1467 62.8266 99.8 61.4533 100.413L52.4666 104.413C52.0133 104.613 51.5066 104.72 50.9999 104.72Z" fill="#64748B"/>
<path d="M50.9999 111.333C50.4933 111.333 49.9866 111.227 49.5199 111.027L40.5333 107.027C39.0533 106.373 38.0933 104.893 38.0933 103.267C38.0933 102.72 38.5333 102.28 39.0799 102.28C39.6266 102.28 40.0666 102.72 40.0666 103.267C40.0666 104.107 40.5599 104.867 41.3333 105.213L50.3199 109.213C50.7466 109.4 51.2399 109.4 51.6666 109.213L60.6533 105.213C61.4133 104.88 61.9199 104.107 61.9199 103.267C61.9199 102.72 62.3599 102.28 62.9066 102.28C63.4533 102.28 63.8933 102.72 63.8933 103.267C63.8933 104.893 62.9333 106.36 61.4533 107.027L52.4666 111.027C52.0133 111.227 51.5066 111.333 50.9999 111.333Z" fill="#64748B"/>
<path d="M101.827 61.52L94.0134 58.04C92.8667 57.5333 91.1334 57.5333 89.9867 58.04L82.1734 61.52C80.2001 62.4 79.9067 63.6 79.9067 64.24C79.9067 64.88 80.2001 66.08 82.1734 66.96L89.9867 70.44C90.5601 70.6933 91.2801 70.8266 92.0001 70.8266C92.7201 70.8266 93.4401 70.6933 94.0134 70.44L101.827 66.96C103.8 66.08 104.093 64.88 104.093 64.24C104.093 63.6 103.813 62.4 101.827 61.52Z" fill="#ED342B"/>
<path d="M91.9999 77.72C91.4933 77.72 90.9866 77.6134 90.5199 77.4134L81.5333 73.4134C80.1599 72.8 79.0933 71.16 79.0933 69.6534C79.0933 69.1067 79.5333 68.6667 80.0799 68.6667C80.6266 68.6667 81.0666 69.1067 81.0666 69.6534C81.0666 70.3734 81.6666 71.3067 82.3333 71.6L91.3199 75.6C91.7466 75.7867 92.2399 75.7867 92.6666 75.6L101.653 71.6C102.32 71.3067 102.92 70.3867 102.92 69.6534C102.92 69.1067 103.36 68.6667 103.907 68.6667C104.453 68.6667 104.893 69.1067 104.893 69.6534C104.893 71.1467 103.827 72.8 102.453 73.4134L93.4666 77.4134C93.0133 77.6134 92.5066 77.72 91.9999 77.72Z" fill="#64748B"/>
<path d="M91.9999 84.3334C91.4933 84.3334 90.9866 84.2267 90.5199 84.0267L81.5333 80.0267C80.0533 79.3734 79.0933 77.8934 79.0933 76.2667C79.0933 75.72 79.5333 75.28 80.0799 75.28C80.6266 75.28 81.0666 75.72 81.0666 76.2667C81.0666 77.1067 81.5599 77.8667 82.3333 78.2134L91.3199 82.2134C91.7466 82.4 92.2399 82.4 92.6666 82.2134L101.653 78.2134C102.413 77.88 102.92 77.1067 102.92 76.2667C102.92 75.72 103.36 75.28 103.907 75.28C104.453 75.28 104.893 75.72 104.893 76.2667C104.893 77.8934 103.933 79.36 102.453 80.0267L93.4666 84.0267C93.0133 84.2267 92.5066 84.3334 91.9999 84.3334Z" fill="#64748B"/>
<path d="M101.827 119.52L94.0134 116.04C92.8667 115.533 91.1334 115.533 89.9867 116.04L82.1734 119.52C80.2001 120.4 79.9067 121.6 79.9067 122.24C79.9067 122.88 80.2001 124.08 82.1734 124.96L89.9867 128.44C90.5601 128.693 91.2801 128.827 92.0001 128.827C92.7201 128.827 93.4401 128.693 94.0134 128.44L101.827 124.96C103.8 124.08 104.093 122.88 104.093 122.24C104.093 121.6 103.813 120.4 101.827 119.52Z" fill="#635BFF"/>
<path d="M91.9999 135.72C91.4933 135.72 90.9866 135.613 90.5199 135.413L81.5333 131.413C80.1599 130.8 79.0933 129.16 79.0933 127.653C79.0933 127.107 79.5333 126.667 80.0799 126.667C80.6266 126.667 81.0666 127.107 81.0666 127.653C81.0666 128.373 81.6666 129.307 82.3333 129.6L91.3199 133.6C91.7466 133.787 92.2399 133.787 92.6666 133.6L101.653 129.6C102.32 129.307 102.92 128.387 102.92 127.653C102.92 127.107 103.36 126.667 103.907 126.667C104.453 126.667 104.893 127.107 104.893 127.653C104.893 129.147 103.827 130.8 102.453 131.413L93.4666 135.413C93.0133 135.613 92.5066 135.72 91.9999 135.72Z" fill="#64748B"/>
<path d="M91.9999 142.333C91.4933 142.333 90.9866 142.227 90.5199 142.027L81.5333 138.027C80.0533 137.373 79.0933 135.893 79.0933 134.267C79.0933 133.72 79.5333 133.28 80.0799 133.28C80.6266 133.28 81.0666 133.72 81.0666 134.267C81.0666 135.107 81.5599 135.867 82.3333 136.213L91.3199 140.213C91.7466 140.4 92.2399 140.4 92.6666 140.213L101.653 136.213C102.413 135.88 102.92 135.107 102.92 134.267C102.92 133.72 103.36 133.28 103.907 133.28C104.453 133.28 104.893 133.72 104.893 134.267C104.893 135.893 103.933 137.36 102.453 138.027L93.4666 142.027C93.0133 142.227 92.5066 142.333 91.9999 142.333Z" fill="#64748B"/>
<path d="M142.827 88.52L135.013 85.04C133.867 84.5333 132.133 84.5333 130.987 85.04L123.173 88.52C121.2 89.4 120.907 90.6 120.907 91.24C120.907 91.88 121.2 93.08 123.173 93.96L130.987 97.44C131.56 97.6933 132.28 97.8266 133 97.8266C133.72 97.8266 134.44 97.6933 135.013 97.44L142.827 93.96C144.8 93.08 145.093 91.88 145.093 91.24C145.093 90.6 144.813 89.4 142.827 88.52Z" fill="#FF9B00"/>
<path d="M133 104.72C132.493 104.72 131.987 104.613 131.52 104.413L122.533 100.413C121.16 99.8 120.093 98.16 120.093 96.6534C120.093 96.1067 120.533 95.6667 121.08 95.6667C121.627 95.6667 122.067 96.1067 122.067 96.6534C122.067 97.3734 122.667 98.3067 123.333 98.6L132.32 102.6C132.747 102.787 133.24 102.787 133.667 102.6L142.653 98.6C143.32 98.3067 143.92 97.3867 143.92 96.6534C143.92 96.1067 144.36 95.6667 144.907 95.6667C145.453 95.6667 145.893 96.1067 145.893 96.6534C145.893 98.1467 144.827 99.8 143.453 100.413L134.467 104.413C134.013 104.613 133.507 104.72 133 104.72Z" fill="#64748B"/>
<path d="M133 111.333C132.493 111.333 131.987 111.227 131.52 111.027L122.533 107.027C121.053 106.373 120.093 104.893 120.093 103.267C120.093 102.72 120.533 102.28 121.08 102.28C121.627 102.28 122.067 102.72 122.067 103.267C122.067 104.107 122.56 104.867 123.333 105.213L132.32 109.213C132.747 109.4 133.24 109.4 133.667 109.213L142.653 105.213C143.413 104.88 143.92 104.107 143.92 103.267C143.92 102.72 144.36 102.28 144.907 102.28C145.453 102.28 145.893 102.72 145.893 103.267C145.893 104.893 144.933 106.36 143.453 107.027L134.467 111.027C134.013 111.227 133.507 111.333 133 111.333Z" fill="#64748B"/>
<rect x="268" y="78" width="37.8963" height="37.8963" rx="10.1612" fill="#1059BC"/>
<rect opacity="0.2" x="279.197" y="107.283" width="20.6707" height="15.503" transform="rotate(-90 279.197 107.283)" fill="white"/>
<rect x="289.533" y="107.283" width="20.6707" height="5.16768" transform="rotate(-90 289.533 107.283)" fill="white"/>
<rect opacity="0.1" x="294.7" y="107.283" width="15.503" height="5.16768" transform="rotate(180 294.7 107.283)" fill="white"/>
<rect opacity="0.7" x="294.7" y="107.283" width="15.503" height="6.93225" transform="rotate(180 294.7 107.283)" fill="white"/>
<rect opacity="0.3" x="294.7" y="100.351" width="15.503" height="6.93225" transform="rotate(180 294.7 100.351)" fill="white"/>
<rect opacity="0.7" x="284.365" y="107.283" width="20.6707" height="5.16768" transform="rotate(-90 284.365 107.283)" fill="white"/>
<rect opacity="0.3" x="279.197" y="107.283" width="20.6707" height="5.16768" transform="rotate(-90 279.197 107.283)" fill="white"/>
<rect x="268" y="78" width="37.8963" height="37.8963" rx="10.1612" stroke="#4F627D"/>
<rect x="268.339" y="78.3387" width="37.2189" height="37.2189" rx="9.82246" stroke="#4F627D" stroke-width="0.677411"/>
<path d="M461.11 72.67L443.53 64.84C440.95 63.7 437.05 63.7 434.47 64.84L416.89 72.67C412.45 74.65 411.79 77.35 411.79 78.79C411.79 80.23 412.45 82.93 416.89 84.91L434.47 92.74C435.76 93.31 437.38 93.61 439 93.61C440.62 93.61 442.24 93.31 443.53 92.74L461.11 84.91C465.55 82.93 466.21 80.23 466.21 78.79C466.21 77.35 465.58 74.65 461.11 72.67Z" fill="#1059BC"/>
<path d="M439 109.12C437.86 109.12 436.72 108.88 435.67 108.43L415.45 99.43C412.36 98.05 409.96 94.36 409.96 90.97C409.96 89.74 410.95 88.75 412.18 88.75C413.41 88.75 414.4 89.74 414.4 90.97C414.4 92.59 415.75 94.69 417.25 95.35L437.47 104.35C438.43 104.77 439.54 104.77 440.5 104.35L460.72 95.35C462.22 94.69 463.57 92.62 463.57 90.97C463.57 89.74 464.56 88.75 465.79 88.75C467.02 88.75 468.01 89.74 468.01 90.97C468.01 94.33 465.61 98.05 462.52 99.43L442.3 108.43C441.28 108.88 440.14 109.12 439 109.12Z" fill="#64748B"/>
<path d="M439 124C437.86 124 436.72 123.76 435.67 123.31L415.45 114.31C412.12 112.84 409.96 109.51 409.96 105.85C409.96 104.62 410.95 103.63 412.18 103.63C413.41 103.63 414.4 104.62 414.4 105.85C414.4 107.74 415.51 109.45 417.25 110.23L437.47 119.23C438.43 119.65 439.54 119.65 440.5 119.23L460.72 110.23C462.43 109.48 463.57 107.74 463.57 105.85C463.57 104.62 464.56 103.63 465.79 103.63C467.02 103.63 468.01 104.62 468.01 105.85C468.01 109.51 465.85 112.81 462.52 114.31L442.3 123.31C441.28 123.76 440.14 124 439 124Z" fill="#64748B"/>
<path d="M306 98H410" stroke="#1059BC" stroke-width="2"/>
<path d="M67 98H117" stroke="#1059BC" stroke-width="2"/>
<path d="M149 97.9999L231.8 99.2999" stroke="#1059BC" stroke-width="2"/>
<path d="M108 68C108 68 126.45 68 134 68C174.5 68 173 68 204 90C222.107 102.85 267.5 98 267.5 98" stroke="#1059BC" stroke-width="2"/>
<path d="M108 130.329C108 130.329 126.45 130.329 134 130.329C174.5 130.329 172.368 129.409 204 108.329C222.5 96 268.5 98.5 268.5 98.5" stroke="#1059BC" stroke-width="2"/>
</svg>
